<?xml version="1.0" encoding="utf-8"?>
<!-- Generator: Adobe Illustrator 19.2.1, SVG Export Plug-In . SVG Version: 6.00 Build 0)  -->
<svg version="1.2" baseProfile="tiny" id="Layer_1" xmlns="http://www.w3.org/2000/svg" xmlns:xlink="http://www.w3.org/1999/xlink"
	 x="0px" y="0px" viewBox="0 0 240 240" xml:space="preserve">
<g>
	<path fill="#1D1D1D" d="M120,223.5c-14.3,0-27.4-11.1-36.8-31.1c-9-19.1-13.9-44.8-13.9-72.4s4.9-53.3,13.9-72.4
		c9.4-20.1,22.5-31.1,36.8-31.1s27.4,11.1,36.8,31.1c9,19.1,13.9,44.8,13.9,72.4s-4.9,53.3-13.9,72.4
		C147.4,212.4,134.3,223.5,120,223.5z M120,32.5c-16.4,0-34.7,35.9-34.7,87.5s18.3,87.5,34.7,87.5s34.7-35.9,34.7-87.5
		S136.4,32.5,120,32.5z"/>
	<path fill="#1D1D1D" d="M120,20.5c26.2,0,46.7,43.7,46.7,99.5c0,55.8-20.5,99.5-46.7,99.5c-26.2,0-46.7-43.7-46.7-99.5
		C73.3,64.2,93.8,20.5,120,20.5 M120,211.5c21,0,38.7-41.9,38.7-91.5c0-49.6-17.7-91.5-38.7-91.5c-21,0-38.7,41.9-38.7,91.5
		C81.3,169.6,99,211.5,120,211.5 M120,12.5c-15.9,0-30.3,11.9-40.4,33.4C70.4,65.6,65.3,91.9,65.3,120c0,28.1,5.1,54.4,14.3,74.1
		c10.1,21.6,24.5,33.4,40.4,33.4c15.9,0,30.3-11.9,40.4-33.4c9.2-19.6,14.3-45.9,14.3-74.1c0-28.1-5.1-54.4-14.3-74.1
		C150.3,24.4,135.9,12.5,120,12.5L120,12.5z M120,203.5c-6.4,0-14.1-8.5-19.9-22.3c-6.9-16.3-10.9-38.6-10.9-61.2
		c0-22.6,4-44.9,10.9-61.2c5.8-13.7,13.4-22.3,19.9-22.3c6.4,0,14.1,8.5,19.9,22.3c6.9,16.3,10.9,38.6,10.9,61.2
		c0,22.6-4,44.9-10.9,61.2C134.1,195,126.4,203.5,120,203.5L120,203.5z"/>
</g>
<g>
	<path fill="#1D1D1D" d="M204.7,73v8H35.3v-8H204.7 M212.7,65h-8H35.3h-8v8v8v8h8h169.4h8v-8v-8V65L212.7,65z"/>
</g>
<g>
	<path fill="#1D1D1D" d="M204.7,159v8H35.3v-8H204.7 M212.7,151h-8H35.3h-8v8v8v8h8h169.4h8v-8v-8V151L212.7,151z"/>
</g>
<rect fill-rule="evenodd" fill="none" width="240" height="240"/>
<path fill="#BFB23A" stroke="#1D1D1D" stroke-width="8" stroke-linecap="round" stroke-miterlimit="10" d="M223.7,120
	c0-57.3-46.4-103.7-103.7-103.7S16.3,62.7,16.3,120 M32.6,120c0-48.3,39.1-87.4,87.4-87.4s87.4,39.1,87.4,87.4"/>
<path fill="#BDBDBD" stroke="#1D1D1D" stroke-width="8" stroke-linecap="round" stroke-miterlimit="10" d="M16.3,120
	c0,57.3,46.4,103.7,103.7,103.7S223.7,177.3,223.7,120 M207.4,120c0,48.3-39.1,87.4-87.4,87.4S32.6,168.3,32.6,120"/>
<path fill="#BDBDBD" d="M166.7,120c0,55.8-20.5,99.5-46.7,99.5c-26.2,0-46.7-43.7-46.7-99.5 M81.3,120c0,49.6,17.7,91.5,38.7,91.5
	c21,0,38.7-41.9,38.7-91.5"/>
<g>
	<rect x="5.8" y="112" fill="#BFB23A" width="228.5" height="16"/>
	<path fill="#1D1D1D" d="M230.2,116v8H9.8v-8H230.2 M238.2,108h-8H9.8h-8v8v8v8h8h220.5h8v-8v-8V108L238.2,108z"/>
</g>
<rect x="35.3" y="73" fill="#BFB23A" width="169.4" height="8"/>
<rect x="35.3" y="159" fill="#BDBDBD" width="169.4" height="8"/>
<g>
	<path fill="#BFB23A" d="M73.3,120c0-55.8,20.5-99.5,46.7-99.5c26.2,0,46.7,43.7,46.7,99.5 M158.7,120c0-49.6-17.7-91.5-38.7-91.5
		c-21,0-38.7,41.9-38.7,91.5"/>
</g>
<g>
	<rect x="69" y="69" fill="#BDBDBD" width="102" height="102"/>
	<g>
		<path fill="#1D1D1D" d="M167,73v94H73V73H167 M175,65h-8H73h-8v8v94v8h8h94h8v-8V73V65L175,65z"/>
	</g>
</g>
<g>
</g>
<g>
</g>
<g>
</g>
<g>
</g>
<g>
</g>
<g>
</g>
</svg>
