<?xml version="1.0" encoding="utf-8"?>
<!-- Generator: Adobe Illustrator 19.2.1, SVG Export Plug-In . SVG Version: 6.00 Build 0)  -->
<svg version="1.2" baseProfile="tiny" id="Layer_1" xmlns="http://www.w3.org/2000/svg" xmlns:xlink="http://www.w3.org/1999/xlink"
	 x="0px" y="0px" viewBox="0 0 240 240" xml:space="preserve">
<rect fill-rule="evenodd" fill="none" width="240" height="240"/>
<g>
	<g>
		<rect x="193.5" y="108" fill-rule="evenodd" fill="#BDBDBD" width="37.9" height="24.1"/>
	</g>
	<g>
		<path fill="#1D1D1D" d="M227.4,112V128h-29.9V112H227.4 M235.4,104h-8h-29.9h-8v8V128v8h8h29.9h8v-8V112V104L235.4,104z"/>
	</g>
</g>
<g>
	<g>
		<rect x="8.6" y="108" fill-rule="evenodd" fill="#BDBDBD" width="37.9" height="24.1"/>
	</g>
	<g>
		<path fill="#1D1D1D" d="M42.5,112V128H12.6V112H42.5 M50.5,104h-8H12.6h-8v8V128v8h8h29.9h8v-8V112V104L50.5,104z"/>
	</g>
</g>
<g>
	<g>
		
			<rect x="173.4" y="166.4" transform="matrix(0.7071 -0.7071 0.7071 0.7071 -76.7962 185.4023)" fill-rule="evenodd" fill="#BDBDBD" width="24.1" height="37.9"/>
	</g>
	<g>
		<path fill="#1D1D1D" d="M180.5,169.2l21.1,21.1l-11.4,11.4l-21.1-21.1L180.5,169.2 M180.5,157.8l-5.7,5.7l-11.4,11.4l-5.7,5.7
			l5.7,5.7l21.1,21.1l5.7,5.7l5.7-5.7l11.4-11.4l5.7-5.7l-5.7-5.7l-21.1-21.1L180.5,157.8L180.5,157.8z"/>
	</g>
</g>
<g>
	<g>
		
			<rect x="42.6" y="35.6" transform="matrix(0.7071 -0.7071 0.7071 0.7071 -22.615 54.5975)" fill-rule="evenodd" fill="#BDBDBD" width="24.1" height="37.9"/>
	</g>
	<g>
		<path fill="#1D1D1D" d="M49.7,38.3l21.1,21.1L59.5,70.8L38.3,49.7L49.7,38.3 M49.7,27L44,32.7L32.7,44L27,49.7l5.7,5.7l21.1,21.1
			l5.7,5.7l5.7-5.7l11.4-11.4l5.7-5.7l-5.7-5.7L55.4,32.7L49.7,27L49.7,27z"/>
	</g>
</g>
<g>
	<g>
		
			<rect x="35.6" y="173.4" transform="matrix(0.7071 -0.7071 0.7071 0.7071 -115.108 92.9094)" fill-rule="evenodd" fill="#BDBDBD" width="37.9" height="24.1"/>
	</g>
	<g>
		<path fill="#1D1D1D" d="M59.5,169.2l11.4,11.4l-21.1,21.1l-11.4-11.4L59.5,169.2 M59.5,157.8l-5.7,5.7l-21.1,21.1l-5.7,5.7
			l5.7,5.7L44,207.3l5.7,5.7l5.7-5.7l21.1-21.1l5.7-5.7l-5.7-5.7l-11.4-11.4L59.5,157.8L59.5,157.8z"/>
	</g>
</g>
<g>
	<g>
		
			<rect x="166.4" y="42.6" transform="matrix(0.7071 -0.7071 0.7071 0.7071 15.6968 147.0905)" fill-rule="evenodd" fill="#BDBDBD" width="37.9" height="24.1"/>
	</g>
	<g>
		<path fill="#1D1D1D" d="M190.3,38.3l11.4,11.4l-21.1,21.1l-11.4-11.4L190.3,38.3 M190.3,27l-5.7,5.7l-21.1,21.1l-5.7,5.7l5.7,5.7
			l11.4,11.4l5.7,5.7l5.7-5.7l21.1-21.1l5.7-5.7l-5.7-5.7L196,32.7L190.3,27L190.3,27z"/>
	</g>
</g>
<g>
	<g>
		<rect x="108" y="193.5" fill-rule="evenodd" fill="#BDBDBD" width="24.1" height="37.9"/>
	</g>
	<g>
		<path fill="#1D1D1D" d="M128,197.5v29.9H112v-29.9H128 M136,189.5h-8H112h-8v8v29.9v8h8H128h8v-8v-29.9V189.5L136,189.5z"/>
	</g>
</g>
<g>
	<g>
		<rect x="108" y="8.6" fill-rule="evenodd" fill="#BDBDBD" width="24.1" height="37.9"/>
	</g>
	<g>
		<path fill="#1D1D1D" d="M128,12.6v29.9H112V12.6H128 M136,4.6h-8H112h-8v8v29.9v8h8H128h8v-8V12.6V4.6L136,4.6z"/>
	</g>
</g>
<g>
	<g>
		<path fill-rule="evenodd" fill="#BFB23A" d="M120,182l-52.5-30.5V88.4L120,58l52.6,30.4v63.1L120,182z"/>
	</g>
	<path fill="#1D1D1D" d="M119.8,60.9L170.2,90v60.4l-50.4,29.2l-50.3-29.2V90L119.8,60.9 M119.8,51.6l-4,2.3L65.5,83.1l-4,2.3V90
		v60.4v4.6l4,2.3l50.3,29.2l4,2.3l4-2.3l50.4-29.2l4-2.3v-4.6V90v-4.6l-4-2.3l-50.3-29.2L119.8,51.6L119.8,51.6z"/>
	<g>
		
			<polyline fill-rule="evenodd" fill="none" stroke="#1D1D1D" stroke-width="8" stroke-linecap="round" stroke-miterlimit="10" points="
			119.8,179.6 119.8,120 69.5,90 		"/>
		
			<line fill-rule="evenodd" fill="none" stroke="#1D1D1D" stroke-width="8" stroke-linecap="round" stroke-miterlimit="10" x1="170.2" y1="90" x2="119.8" y2="120"/>
	</g>
</g>
<g>
</g>
<g>
</g>
<g>
</g>
<g>
</g>
<g>
</g>
<g>
</g>
</svg>
