<?xml version="1.0" encoding="utf-8"?>
<!-- Generator: Adobe Illustrator 19.2.1, SVG Export Plug-In . SVG Version: 6.00 Build 0)  -->
<svg version="1.2" baseProfile="tiny" id="Layer_1" xmlns="http://www.w3.org/2000/svg" xmlns:xlink="http://www.w3.org/1999/xlink"
	 x="0px" y="0px" viewBox="0 0 240 240" xml:space="preserve">
<g>
	<path fill="none" d="M66.4,77.8l-11-31.9l32.5,10.5L66.4,77.8z M104.8,49.4L119.6,19l15.5,30.4H104.8z M173.6,77.8l-21.4-21.4
		l32-11L173.6,77.8z"/>
	<g>
		<polygon fill-rule="evenodd" fill="#BFB23A" points="98.4,53.4 119.6,10 141.7,53.4 		"/>
		<path fill="#1D1D1D" d="M119.6,19l15.5,30.4h-30.3L119.6,19 M119.5,1.1l-7,14.4L97.7,45.9L92,57.4h12.8h30.3h13.1l-5.9-11.6
			l-15.5-30.4L119.5,1.1L119.5,1.1z"/>
	</g>
	<g>
		<polygon fill-rule="evenodd" fill="#BFB23A" points="176.6,120 176.6,88.4 220,109.6 199.5,120 		"/>
		<path fill="#1D1D1D" d="M180.6,94.8l30.4,14.8l-12.5,6.4h-17.9V94.8 M172.6,82v12.8V116v8h8h17.9h1.9l1.7-0.9l12.5-6.4l14.3-7.3
			l-14.4-7l-30.4-14.8L172.6,82L172.6,82z"/>
	</g>
	<g>
		<polygon fill-rule="evenodd" fill="#BFB23A" points="39.7,120 20,110.4 63.4,88.3 63.4,120 		"/>
		<path fill="#1D1D1D" d="M59.4,94.8V116H40.6L29,110.4L59.4,94.8 M67.4,81.8l-11.6,5.9l-30.4,15.5l-14.3,7.3l14.4,7l11.6,5.6
			l1.7,0.8h1.8h18.8h8v-8V94.8V81.8L67.4,81.8z"/>
	</g>
	<g>
		<polygon fill-rule="evenodd" fill="#BFB23A" points="144.8,54.7 190.4,39 175.4,85.3 		"/>
		<path fill="#1D1D1D" d="M184.1,45.4l-10.5,32.5l-21.4-21.4L184.1,45.4 M196.7,32.6l-15.2,5.2l-32,11L137.4,53l9.1,9l21.4,21.4
			l9.2,9.2l4-12.4l10.5-32.5L196.7,32.6L196.7,32.6z"/>
	</g>
	<g>
		<polygon fill-rule="evenodd" fill="#BFB23A" points="49,39.6 95.3,54.6 64.7,85.2 		"/>
		<path fill="#1D1D1D" d="M55.4,45.9l32.5,10.5L66.4,77.8L55.4,45.9 M42.6,33.3l5.2,15.2l11,31.9L63,92.5l9-9l21.4-21.4l9.2-9.2
			l-12.4-4L57.9,38.3L42.6,33.3L42.6,33.3z"/>
	</g>
	<g>
		<path fill-rule="evenodd" fill="#BFB23A" d="M71.4,120l-0.5-3.5c-0.3-2.2-0.4-4.4-0.4-6.5c0-27.3,22.2-49.5,49.5-49.5
			s49.5,22.2,49.5,49.5c0,2.1-0.1,4.3-0.4,6.5l-0.5,3.5H71.4z"/>
		<path fill="#1D1D1D" d="M120,64.5c25.1,0,45.5,20.4,45.5,45.5c0,2-0.1,4-0.4,6H74.9c-0.3-2-0.4-4-0.4-6
			C74.5,84.9,94.9,64.5,120,64.5 M120,56.5c-29.5,0-53.5,24-53.5,53.5c0,2.3,0.2,4.7,0.5,7.1l0.9,7h7h90.1h7l0.9-7
			c0.3-2.4,0.5-4.8,0.5-7.1C173.5,80.5,149.5,56.5,120,56.5L120,56.5z"/>
	</g>
</g>
<rect fill-rule="evenodd" fill="none" width="240" height="240"/>
<path fill="#BDBDBD" stroke="#1D1D1D" stroke-width="8" stroke-linecap="round" stroke-miterlimit="10" d="M16.3,120
	c0,57.3,46.4,103.7,103.7,103.7S223.7,177.3,223.7,120 M207.4,120c0,48.3-39.1,87.4-87.4,87.4S32.6,168.3,32.6,120"/>
<g>
	<rect x="5.8" y="112" fill="#BFB23A" width="228.5" height="16"/>
	<path fill="#1D1D1D" d="M230.2,116v8H9.8v-8H230.2 M238.2,108h-8H9.8h-8v8v8v8h8h220.5h8v-8v-8V108L238.2,108z"/>
</g>
<g>
</g>
<g>
</g>
<g>
</g>
<g>
</g>
<g>
</g>
<g>
</g>
</svg>
