<?xml version="1.0" encoding="iso-8859-1"?>
<!-- Generator: Adobe Illustrator 19.2.1, SVG Export Plug-In . SVG Version: 6.00 Build 0)  -->
<svg version="1.1" id="Layer_1" xmlns="http://www.w3.org/2000/svg" xmlns:xlink="http://www.w3.org/1999/xlink" x="0px" y="0px"
	 viewBox="0 0 240 240" style="enable-background:new 0 0 240 240;" xml:space="preserve">
<g>
	<g>
		<polygon style="fill-rule:evenodd;clip-rule:evenodd;fill:#BFB23A;" points="98.446,63.373 119.561,20.029 141.689,63.373 		"/>
		<path style="fill:#1D1D1D;" d="M119.645,28.99l15.511,30.382h-30.312L119.645,28.99 M119.477,11.068l-7.024,14.419L97.652,55.869
			l-5.604,11.504h12.796h30.312h13.067l-5.941-11.638L126.77,25.353L119.477,11.068L119.477,11.068z"/>
	</g>
	<g>
		<polygon style="fill-rule:evenodd;clip-rule:evenodd;fill:#BFB23A;" points="98.312,176.624 141.554,176.624 120.439,219.972 		
			"/>
		<path style="fill:#1D1D1D;" d="M135.156,180.624l-14.801,30.385l-15.511-30.385H135.156 M147.952,172.624h-12.796h-30.312H91.779
			l5.94,11.637l15.511,30.385l7.293,14.287l7.025-14.421l14.801-30.385L147.952,172.624L147.952,172.624z"/>
	</g>
	<g>
		<polygon style="fill-rule:evenodd;clip-rule:evenodd;fill:#BFB23A;" points="176.624,98.443 219.971,119.557 176.624,141.69 		"/>
		<path style="fill:#1D1D1D;" d="M180.624,104.841l30.385,14.801l-30.385,15.515V104.841 M172.624,92.045v12.795v30.316v13.067
			l11.638-5.943l30.385-15.515l14.284-7.294l-14.419-7.023l-30.385-14.801L172.624,92.045L172.624,92.045z"/>
	</g>
	<g>
		<polygon style="fill-rule:evenodd;clip-rule:evenodd;fill:#BFB23A;" points="20.029,120.436 63.376,98.308 63.376,141.555 		"/>
		<path style="fill:#1D1D1D;" d="M59.376,104.841v30.316L28.99,120.352L59.376,104.841 M67.376,91.775l-11.637,5.941l-30.386,15.511
			l-14.285,7.292l14.419,7.025l30.386,14.804l11.504,5.605v-12.797v-30.316V91.775L67.376,91.775z"/>
	</g>
	<g>
		<polygon style="fill-rule:evenodd;clip-rule:evenodd;fill:#BFB23A;" points="144.794,64.719 190.38,49 175.379,95.292 		"/>
		<path style="fill:#1D1D1D;" d="M184.103,55.395l-10.516,32.451l-21.439-21.431L184.103,55.395 M196.657,42.603l-15.163,5.229
			L149.54,58.851l-12.1,4.172l9.052,9.048l21.439,21.431l9.239,9.236l4.027-12.427l10.516-32.451L196.657,42.603L196.657,42.603z"/>
	</g>
	<g>
		<polygon style="fill-rule:evenodd;clip-rule:evenodd;fill:#BFB23A;" points="64.622,144.699 95.201,175.273 49.625,191.003 		"/>
		<path style="fill:#1D1D1D;" d="M66.414,152.148l21.435,21.431l-31.948,11.027L66.414,152.148 M62.829,137.251l-4.026,12.432
			l-10.512,32.458l-4.943,15.261l15.163-5.234l31.948-11.027l12.093-4.174l-9.047-9.046L72.07,146.49L62.829,137.251L62.829,137.251
			z"/>
	</g>
	<g>
		<polygon style="fill-rule:evenodd;clip-rule:evenodd;fill:#BFB23A;" points="144.699,175.369 175.283,144.796 191.002,190.381 		
			"/>
		<path style="fill:#1D1D1D;" d="M173.587,152.148l11.019,31.955l-32.458-10.524L173.587,152.148 M176.979,137.445l-9.048,9.045
			l-21.439,21.431l-9.241,9.238l12.43,4.03l32.458,10.524l15.26,4.948l-5.23-15.166L181.15,149.54L176.979,137.445L176.979,137.445z
			"/>
	</g>
	<g>
		<polygon style="fill-rule:evenodd;clip-rule:evenodd;fill:#BFB23A;" points="49.003,49.621 95.298,64.623 64.718,95.197 		"/>
		<path style="fill:#1D1D1D;" d="M55.398,55.898l32.451,10.516L66.414,87.845L55.398,55.898 M42.607,43.343l5.228,15.162
			l11.015,31.947l4.171,12.097l9.049-9.047l21.435-21.431l9.241-9.239l-12.431-4.028L57.865,48.288L42.607,43.343L42.607,43.343z"/>
	</g>
	<g>
		<path style="fill-rule:evenodd;clip-rule:evenodd;fill:#BFB23A;" d="M120,169.469c-27.277,0-49.468-22.193-49.468-49.472
			c0-27.277,22.191-49.468,49.468-49.468s49.468,22.191,49.468,49.468C169.469,147.275,147.277,169.469,120,169.469z"/>
		<path style="fill:#1D1D1D;" d="M120,74.529c25.109,0,45.468,20.358,45.468,45.468c0,25.106-20.359,45.472-45.468,45.472
			c-25.11,0-45.468-20.366-45.468-45.472C74.532,94.887,94.891,74.529,120,74.529 M120,66.529
			c-29.482,0-53.468,23.986-53.468,53.468c0,29.484,23.986,53.472,53.468,53.472s53.468-23.987,53.468-53.472
			C173.468,90.514,149.483,66.529,120,66.529L120,66.529z"/>
	</g>
</g>
<rect style="fill-rule:evenodd;clip-rule:evenodd;fill:none;" width="240" height="240"/>
</svg>
