<?xml version="1.0" encoding="iso-8859-1"?>
<!-- Generator: Adobe Illustrator 19.2.1, SVG Export Plug-In . SVG Version: 6.00 Build 0)  -->
<svg version="1.1" id="Layer_1" xmlns="http://www.w3.org/2000/svg" xmlns:xlink="http://www.w3.org/1999/xlink" x="0px" y="0px"
	 viewBox="0 0 240 240" style="enable-background:new 0 0 240 240;" xml:space="preserve">
<g>
	<g>
		<rect x="58.521" y="83.123" style="fill-rule:evenodd;clip-rule:evenodd;fill:#BFB23A;" width="122.863" height="73.635"/>
		<path style="fill:#1D1D1D;" d="M177.383,87.122v65.636H62.521V87.122H177.383 M185.383,79.122h-8H62.521h-8v8v65.636v8h8h114.863
			h8v-8V87.122V79.122L185.383,79.122z"/>
	</g>
	<g>
		<polygon style="fill-rule:evenodd;clip-rule:evenodd;fill:#BFB23A;" points="179.818,67.344 214.931,32.236 232.265,49.594 
			197.175,84.694 		"/>
		<path style="fill:#1D1D1D;" d="M214.929,37.895l11.682,11.698l-29.437,29.445l-11.698-11.694L214.929,37.895 M214.933,26.578
			l-5.661,5.66l-29.453,29.449l-5.659,5.658l5.659,5.657l11.698,11.694l5.658,5.656l5.656-5.657l29.437-29.445l5.651-5.653
			l-5.648-5.656L220.59,32.242L214.933,26.578L214.933,26.578z"/>
	</g>
	<g>
		<polygon style="fill-rule:evenodd;clip-rule:evenodd;fill:#BFB23A;" points="179.948,172.717 197.381,155.282 232.364,190.247 
			214.911,207.688 		"/>
		<path style="fill:#1D1D1D;" d="M197.382,160.938l29.324,29.309l-11.794,11.786l-29.308-29.316L197.382,160.938 M197.38,149.626
			l-5.655,5.656l-11.778,11.778l-5.656,5.656l5.655,5.657l29.308,29.316l5.655,5.656l5.658-5.654l11.794-11.786l5.662-5.658
			l-5.662-5.659l-29.324-29.309L197.38,149.626L197.38,149.626z"/>
	</g>
	<g>
		<polygon style="fill-rule:evenodd;clip-rule:evenodd;fill:#BFB23A;" points="7.702,190.309 42.67,155.346 60.109,172.779 
			25.139,207.764 		"/>
		<path style="fill:#1D1D1D;" d="M42.67,161.002l11.782,11.778L25.14,202.105l-11.782-11.794L42.67,161.002 M42.67,149.69
			l-5.656,5.655L7.701,184.654l-5.655,5.654l5.651,5.657l11.782,11.794l5.658,5.664l5.66-5.662l29.313-29.324l5.655-5.658
			l-5.657-5.656l-11.782-11.778L42.67,149.69L42.67,149.69z"/>
	</g>
	<g>
		
			<rect x="21.508" y="33.812" transform="matrix(0.707 -0.7072 0.7072 0.707 -31.485 41.0853)" style="fill-rule:evenodd;clip-rule:evenodd;fill:#BFB23A;" width="24.662" height="49.454"/>
		<path style="fill:#1D1D1D;" d="M25.072,37.991l29.317,29.313L42.602,79.086L13.294,49.773L25.072,37.991 M25.07,26.677
			l-5.656,5.658L7.636,44.117l-5.655,5.656l5.655,5.656l29.309,29.313l5.656,5.657l5.657-5.656l11.786-11.782l5.659-5.657
			l-5.658-5.658L30.728,32.334L25.07,26.677L25.07,26.677z"/>
	</g>
</g>
<rect style="fill-rule:evenodd;clip-rule:evenodd;fill:none;" width="240" height="240"/>
</svg>
