<?xml version="1.0" encoding="iso-8859-1"?>
<!-- Generator: Adobe Illustrator 19.2.1, SVG Export Plug-In . SVG Version: 6.00 Build 0)  -->
<svg version="1.1" id="Layer_1" xmlns="http://www.w3.org/2000/svg" xmlns:xlink="http://www.w3.org/1999/xlink" x="0px" y="0px"
	 viewBox="0 0 240 240" style="enable-background:new 0 0 240 240;" xml:space="preserve">
<g>
	<g>
		<polygon style="fill-rule:evenodd;clip-rule:evenodd;fill:#BFB23A;" points="38.193,212.812 64.479,187.059 15.859,138.843 
			35.018,119.71 83.825,168.114 109.562,142.898 109.562,212.812 		"/>
		<path style="fill:#1D1D1D;" d="M35.027,125.353l48.78,48.377l21.754-21.313v56.395H47.992l22.186-21.735L21.53,138.833
			L35.027,125.353 M35.008,114.067l-5.633,5.626l-13.497,13.479l-5.688,5.681l5.708,5.661l42.885,42.529l-16.388,16.056
			l-13.999,13.715h19.597h57.569h8v-8v-56.395V133.38l-13.599,13.323l-16.121,15.795l-43.181-42.824L35.008,114.067L35.008,114.067z
			"/>
	</g>
	<g>
		<polygon style="fill-rule:evenodd;clip-rule:evenodd;fill:#BFB23A;" points="147.083,222.34 175.363,194.069 24.713,43.41 
			43.54,24.576 194.193,175.233 222.471,146.967 222.471,222.34 		"/>
		<path style="fill:#1D1D1D;" d="M43.541,30.234L194.192,180.89l24.278-24.268v61.718h-61.728l24.278-24.269L30.369,43.41
			L43.541,30.234 M43.54,18.919l-5.657,5.659L24.711,37.754l-5.655,5.657l5.656,5.656l144.994,145.003l-18.619,18.613
			l-13.663,13.658h19.318h61.728h8v-8v-61.718v-19.308l-13.656,13.65l-18.621,18.614l-144.996-145L43.54,18.919L43.54,18.919z"/>
	</g>
	<g>
		<polygon style="fill-rule:evenodd;clip-rule:evenodd;fill:#BFB23A;" points="142.93,109.421 168.396,83.945 119.6,35.204 
			138.816,16.007 187.6,64.731 212.952,39.367 212.952,109.421 		"/>
		<path style="fill:#1D1D1D;" d="M138.817,21.66l48.785,48.726l21.35-21.359v56.395h-56.367l21.469-21.479l-48.794-48.739
			L138.817,21.66 M138.816,10.353l-5.653,5.648l-13.557,13.543l-5.666,5.66l5.666,5.66l43.132,43.083l-15.812,15.819l-13.65,13.656
			h19.308h56.367h8v-8V49.027v-19.32l-13.658,13.664l-15.697,15.704L144.47,16L138.816,10.353L138.816,10.353z"/>
	</g>
</g>
<rect style="fill-rule:evenodd;clip-rule:evenodd;fill:none;" width="240" height="240"/>
</svg>
