<?xml version="1.0" encoding="iso-8859-1"?>
<!-- Generator: Adobe Illustrator 19.2.1, SVG Export Plug-In . SVG Version: 6.00 Build 0)  -->
<svg version="1.1" id="Layer_1" xmlns="http://www.w3.org/2000/svg" xmlns:xlink="http://www.w3.org/1999/xlink" x="0px" y="0px"
	 viewBox="0 0 240 240" style="enable-background:new 0 0 240 240;" xml:space="preserve">
<g>
	<g>
		
			<rect x="17.51" y="171.671" transform="matrix(0.7071 -0.7071 0.7071 0.7071 -115.4291 91.9931)" style="fill-rule:evenodd;clip-rule:evenodd;fill:#BFB23A;" width="71.641" height="27.323"/>
		<path style="fill:#1D1D1D;" d="M69,156l13.664,13.664l-45.005,45L24,201L69,156 M69,144.686l-5.657,5.657l-45,45l-5.656,5.656
			l5.655,5.657l13.659,13.664l5.657,5.658l5.658-5.657l45.005-45l5.658-5.657l-5.657-5.657l-13.664-13.664L69,144.686L69,144.686z"
			/>
	</g>
	<g>
		<polygon style="fill-rule:evenodd;clip-rule:evenodd;fill:#BFB23A;" points="18.279,37.223 37.098,18.405 88.875,67.937 
			70.062,86.75 		"/>
		<path style="fill:#1D1D1D;" d="M37.16,24l45.995,44L70,81.155L24,37.16L37.16,24 M37.036,12.81l-5.533,5.533l-13.16,13.16
			l-5.784,5.784l5.912,5.654l46,43.995l5.654,5.408l5.532-5.532l13.155-13.155l5.784-5.784l-5.91-5.654l-45.995-44L37.036,12.81
			L37.036,12.81z"/>
	</g>
	<g>
		
			<rect x="150.433" y="39.846" transform="matrix(0.7071 -0.7071 0.7071 0.7071 16.8002 147.5538)" style="fill-rule:evenodd;clip-rule:evenodd;fill:#BFB23A;" width="72.134" height="27.305"/>
		<path style="fill:#1D1D1D;" d="M202.346,24L216,37.645L170.654,83L157,69.351L202.346,24 M202.344,12.688l-5.655,5.656
			l-45.346,45.351l-5.657,5.658l5.658,5.657l13.654,13.649l5.657,5.656l5.656-5.657l45.346-45.355l5.658-5.659l-5.66-5.656
			l-13.654-13.645L202.344,12.688L202.344,12.688z"/>
	</g>
	<g>
		
			<rect x="173.017" y="150.852" transform="matrix(0.7071 -0.7071 0.7071 0.7071 -77.3223 186.6726)" style="fill-rule:evenodd;clip-rule:evenodd;fill:#BFB23A;" width="27.311" height="71.641"/>
		<path style="fill:#1D1D1D;" d="M171,157.345l45,45.001L202.346,216l-45.001-45L171,157.345 M171,146.031l-5.657,5.657
			l-13.655,13.655L146.031,171l5.657,5.657l45.001,45l5.657,5.657l5.657-5.657l13.654-13.654l5.657-5.657l-5.657-5.657l-45-45.001
			L171,146.031L171,146.031z"/>
	</g>
	<g>
		<path style="fill-rule:evenodd;clip-rule:evenodd;fill:#BFB23A;" d="M120,169.469c-27.277,0-49.468-22.193-49.468-49.472
			c0-27.277,22.191-49.468,49.468-49.468s49.468,22.191,49.468,49.468C169.469,147.275,147.277,169.469,120,169.469z"/>
		<path style="fill:#1D1D1D;" d="M120,74.529c25.109,0,45.468,20.358,45.468,45.468c0,25.106-20.359,45.472-45.468,45.472
			c-25.11,0-45.468-20.366-45.468-45.472C74.532,94.887,94.891,74.529,120,74.529 M120,66.529
			c-29.482,0-53.468,23.986-53.468,53.468c0,29.484,23.986,53.472,53.468,53.472s53.468-23.987,53.468-53.472
			C173.468,90.514,149.483,66.529,120,66.529L120,66.529z"/>
	</g>
</g>
<rect style="fill-rule:evenodd;clip-rule:evenodd;fill:none;" width="240" height="240"/>
</svg>
