<?xml version="1.0" encoding="iso-8859-1"?>
<!-- Generator: Adobe Illustrator 19.2.1, SVG Export Plug-In . SVG Version: 6.00 Build 0)  -->
<svg version="1.1" id="Layer_1" xmlns="http://www.w3.org/2000/svg" xmlns:xlink="http://www.w3.org/1999/xlink" x="0px" y="0px"
	 viewBox="0 0 240 240" style="enable-background:new 0 0 240 240;" xml:space="preserve">
<g>
	<g>
		<path style="fill-rule:evenodd;clip-rule:evenodd;fill:#BDBDBD;" d="M22.284,51.283c-3.861-3.856-5.989-8.988-5.991-14.448
			c-0.002-5.459,2.123-10.594,5.983-14.457c3.866-3.862,8.999-5.989,14.458-5.989s10.59,2.127,14.45,5.989l65.972,65.996
			l-28.834,28.973L22.284,51.283z"/>
		<path style="fill:#1D1D1D;" d="M36.733,20.39c4.206,0,8.411,1.605,11.621,4.817l63.151,63.174l-23.191,23.303L25.113,48.456
			c-6.424-6.416-6.428-16.825-0.008-23.249C28.318,21.996,32.526,20.39,36.733,20.39 M36.734,12.39L36.734,12.39
			c-6.527,0-12.665,2.542-17.283,7.158c-4.619,4.622-7.16,10.761-7.158,17.289c0.002,6.529,2.548,12.665,7.167,17.279l63.197,63.224
			l5.671,5.673l5.658-5.685l23.191-23.303l5.629-5.656l-5.641-5.643L54.012,19.551C49.398,14.933,43.261,12.39,36.734,12.39
			L36.734,12.39z"/>
	</g>
	<g>
		<rect x="103.98" y="175.844" style="fill-rule:evenodd;clip-rule:evenodd;fill:#BFB23A;" width="24.031" height="47.766"/>
		<path style="fill:#1D1D1D;" d="M124.011,179.844v39.766H107.98v-39.766H124.011 M132.011,171.844h-8H107.98h-8v8v39.766v8h8
			h16.031h8v-8v-39.766V171.844L132.011,171.844z"/>
	</g>
	<g>
		<rect x="175.801" y="104.085" style="fill-rule:evenodd;clip-rule:evenodd;fill:#BFB23A;" width="47.906" height="24.054"/>
		<path style="fill:#1D1D1D;" d="M219.707,108.086v16.054h-39.906v-16.054H219.707 M227.707,100.086h-8h-39.906h-8v8v16.054v8h8
			h39.906h8v-8v-16.054V100.086L227.707,100.086z"/>
	</g>
	<g>
		
			<rect x="171.316" y="158.682" transform="matrix(0.7071 -0.7071 0.7071 0.7071 -76.1432 183.822)" style="fill-rule:evenodd;clip-rule:evenodd;fill:#BFB23A;" width="24.992" height="50.277"/>
		<path style="fill:#1D1D1D;" d="M174.875,162.863l29.891,29.899l-12.015,12.015l-29.891-29.899L174.875,162.863 M174.875,151.549
			l-5.658,5.658l-12.015,12.015l-5.656,5.656l5.655,5.657l29.891,29.899l5.657,5.658l5.658-5.658l12.015-12.015l5.656-5.656
			l-5.655-5.657l-29.891-29.899L174.875,151.549L174.875,151.549z"/>
	</g>
	<g>
		<path style="fill-rule:evenodd;clip-rule:evenodd;fill:#BFB23A;" d="M135.918,160.077c-13.187,0-23.915-10.78-23.915-24.03
			c0-13.244,10.728-24.02,23.915-24.02s23.914,10.775,23.914,24.02C159.832,149.297,149.104,160.077,135.918,160.077z"/>
		<path style="fill:#1D1D1D;" d="M135.918,116.027c10.995,0,19.914,8.969,19.914,20.019c0,11.065-8.919,20.03-19.914,20.03
			c-10.996,0-19.915-8.965-19.915-20.03C116.003,124.996,124.922,116.027,135.918,116.027 M135.918,108.027
			c-15.392,0-27.915,12.569-27.915,28.019c0,15.456,12.523,28.03,27.915,28.03c15.392,0,27.914-12.574,27.914-28.03
			C163.832,120.597,151.31,108.027,135.918,108.027L135.918,108.027z"/>
	</g>
	<g>
		<path style="fill-rule:evenodd;clip-rule:evenodd;fill:#BDBDBD;" d="M92.469,166.634c-17.561-21.122-16.242-51.622,3.067-70.944
			c9.889-9.895,23.032-15.343,37.011-15.343c12.342,0,24.376,4.361,33.884,12.28l3.365,2.803l-74.523,74.578L92.469,166.634z"/>
		<path style="fill:#1D1D1D;" d="M132.547,84.346c11.119,0,22.255,3.8,31.325,11.354l-68.327,68.377
			c-15.941-19.175-15.151-47.576,2.821-65.56C107.828,89.049,120.177,84.346,132.547,84.346 M132.547,76.346L132.547,76.346
			c-15.047,0-29.196,5.866-39.84,16.516c-10.07,10.077-15.917,23.459-16.463,37.681c-0.541,14.072,4.129,27.798,13.149,38.648
			l5.609,6.747l6.202-6.206l68.327-68.377l6.192-6.196l-6.731-5.606C158.766,81.037,145.823,76.346,132.547,76.346L132.547,76.346z"
			/>
	</g>
</g>
<rect style="fill-rule:evenodd;clip-rule:evenodd;fill:none;" width="240" height="240"/>
</svg>
