<?xml version="1.0" encoding="iso-8859-1"?>
<!-- Generator: Adobe Illustrator 19.2.1, SVG Export Plug-In . SVG Version: 6.00 Build 0)  -->
<svg version="1.1" id="Layer_1" xmlns="http://www.w3.org/2000/svg" xmlns:xlink="http://www.w3.org/1999/xlink" x="0px" y="0px"
	 viewBox="0 0 240 240" style="enable-background:new 0 0 240 240;" xml:space="preserve">
<g>
	<g>
		
			<rect x="33.615" y="166.33" transform="matrix(0.7071 -0.7072 0.7072 0.7071 -109.7045 95.1603)" style="fill-rule:evenodd;clip-rule:evenodd;fill:#BFB23A;" width="52.778" height="27.322"/>
		<path style="fill:#1D1D1D;" d="M69.003,157.327l13.664,13.664l-31.664,31.664l-13.659-13.664L69.003,157.327 M69.002,146.013
			l-5.657,5.658l-31.659,31.664l-5.655,5.656l5.655,5.656l13.659,13.664l5.657,5.659l5.658-5.658l31.664-31.664l5.657-5.657
			l-5.657-5.657L74.659,151.67L69.002,146.013L69.002,146.013z"/>
	</g>
	<g>
		<polygon style="fill-rule:evenodd;clip-rule:evenodd;fill:#BFB23A;" points="32.094,51.083 50.913,32.263 88.907,67.899 
			70.092,86.713 		"/>
		<path style="fill:#1D1D1D;" d="M51.003,37.831l32.155,30.16L70.003,81.146l-32.16-30.155L51.003,37.831 M50.824,26.695
			l-5.479,5.479l-13.16,13.16l-5.842,5.842l6.027,5.651l32.16,30.155l5.651,5.299l5.478-5.478l13.155-13.155l5.841-5.841
			l-6.025-5.651l-32.155-30.16L50.824,26.695L50.824,26.695z"/>
	</g>
	<g>
		
			<rect x="153.203" y="46.515" transform="matrix(0.7072 -0.7071 0.7071 0.7072 10.1208 144.7701)" style="fill-rule:evenodd;clip-rule:evenodd;fill:#BFB23A;" width="53.253" height="27.304"/>
		<path style="fill:#1D1D1D;" d="M189.003,37.346l13.654,13.645l-32,32l-13.654-13.649L189.003,37.346 M189.001,26.034l-5.655,5.654
			l-32,31.996l-5.659,5.658l5.659,5.657l13.654,13.649l5.657,5.655l5.656-5.656l32-32l5.659-5.659l-5.661-5.657l-13.654-13.645
			L189.001,26.034L189.001,26.034z"/>
	</g>
	<g>
		
			<rect x="166.347" y="153.607" transform="matrix(0.7071 -0.7071 0.7071 0.7071 -74.5509 179.9923)" style="fill-rule:evenodd;clip-rule:evenodd;fill:#BFB23A;" width="27.31" height="52.766"/>
		<path style="fill:#1D1D1D;" d="M171.003,157.336l31.654,31.655l-13.654,13.654l-31.655-31.654L171.003,157.336 M171.003,146.022
			l-5.657,5.657l-13.655,13.655l-5.657,5.657l5.657,5.657l31.655,31.654l5.657,5.657l5.657-5.657l13.654-13.654l5.657-5.657
			l-5.657-5.657l-31.654-31.655L171.003,146.022L171.003,146.022z"/>
	</g>
</g>
<path style="fill:#BDBDBD;stroke:#1D1D1D;stroke-width:8;stroke-linecap:round;stroke-miterlimit:10;" d="M224,16H16v208l0,0h208V16
	z M208.363,208.363H31.637V31.637h176.725V208.363z"/>
<g>
	<path style="fill-rule:evenodd;clip-rule:evenodd;fill:#BFB23A;" d="M120,169.469c-27.277,0-49.468-22.193-49.468-49.472
		c0-27.277,22.191-49.468,49.468-49.468s49.468,22.191,49.468,49.468C169.469,147.275,147.277,169.469,120,169.469z"/>
	<path style="fill:#1D1D1D;" d="M120,74.529c25.109,0,45.468,20.358,45.468,45.468c0,25.106-20.359,45.472-45.468,45.472
		c-25.11,0-45.468-20.366-45.468-45.472C74.532,94.887,94.891,74.529,120,74.529 M120,66.529c-29.482,0-53.468,23.986-53.468,53.468
		c0,29.484,23.986,53.472,53.468,53.472s53.468-23.987,53.468-53.472C173.468,90.514,149.483,66.529,120,66.529L120,66.529z"/>
</g>
<rect style="fill-rule:evenodd;clip-rule:evenodd;fill:none;" width="240" height="240"/>
</svg>
